<?xml version="1.0" encoding="UTF-8" standalone="no"?>
<svg
   xmlns:dc="http://purl.org/dc/elements/1.1/"
   xmlns:cc="http://creativecommons.org/ns#"
   xmlns:rdf="http://www.w3.org/1999/02/22-rdf-syntax-ns#"
   xmlns:svg="http://www.w3.org/2000/svg"
   xmlns="http://www.w3.org/2000/svg"
   xmlns:sodipodi="http://sodipodi.sourceforge.net/DTD/sodipodi-0.dtd"
   xmlns:inkscape="http://www.inkscape.org/namespaces/inkscape"
   sodipodi:docname="hardware-wallet-step-3.svg"
   inkscape:version="1.0 (1.0+r73+1)"
   id="svg8"
   version="1.1"
   viewBox="0 0 28.310416 22.225001"
   height="84"
   width="107">
  <defs
     id="defs2">
    <clipPath
       id="clipPath849"
       clipPathUnits="userSpaceOnUse">
      <rect
         y="55.551205"
         x="64.578522"
         height="157.54395"
         width="93.905098"
         id="rect851"
         style="fill:#1a1a1a;stroke:#333333;stroke-width:0.112775;stroke-linecap:round;stroke-linejoin:round" />
    </clipPath>
    <clipPath
       id="clipPath863"
       clipPathUnits="userSpaceOnUse">
      <rect
         ry="3.3369195"
         y="55.551212"
         x="64.578514"
         height="157.54393"
         width="93.905098"
         id="rect865"
         style="fill:#f2f3f4;fill-opacity:1;stroke:none;stroke-width:0.112093;stroke-linecap:round;stroke-linejoin:round" />
    </clipPath>
    <clipPath
       clipPathUnits="userSpaceOnUse"
       id="clipPath34">
      <path
         d="M 0,1200 H 1920 V 0 H 0 Z"
         id="path36"
         inkscape:connector-curvature="0" />
    </clipPath>
    <clipPath
       clipPathUnits="userSpaceOnUse"
       id="clipPath72">
      <path
         d="M 0,1200 H 1920 V 0 H 0 Z"
         id="path74"
         inkscape:connector-curvature="0" />
    </clipPath>
    <filter
       x="-0.024"
       y="-0.156"
       width="1.048"
       height="1.4380001"
       filterUnits="objectBoundingBox"
       id="a">
      <feOffset
         dy="2"
         in="SourceAlpha"
         result="shadowOffsetOuter1"
         id="feOffset1228" />
      <feGaussianBlur
         stdDeviation="2"
         in="shadowOffsetOuter1"
         result="shadowBlurOuter1"
         id="feGaussianBlur1230" />
      <feComposite
         in="shadowBlurOuter1"
         in2="SourceAlpha"
         operator="out"
         result="shadowBlurOuter1"
         id="feComposite1232" />
      <feColorMatrix
         values="0 0 0 0 0 0 0 0 0 0 0 0 0 0 0 0 0 0 0.123075181 0"
         in="shadowBlurOuter1"
         id="feColorMatrix1234" />
    </filter>
    <path
       id="b"
       d="M 0,0 H 294 V 32 H 0 Z" />
    <clipPath
       id="clipPath849-7"
       clipPathUnits="userSpaceOnUse">
      <rect
         y="55.551205"
         x="64.578522"
         height="157.54395"
         width="93.905098"
         id="rect851-5"
         style="fill:#1a1a1a;stroke:#333333;stroke-width:0.112775;stroke-linecap:round;stroke-linejoin:round" />
    </clipPath>
    <clipPath
       id="clipPath863-3"
       clipPathUnits="userSpaceOnUse">
      <rect
         ry="3.3369195"
         y="55.551212"
         x="64.578514"
         height="157.54393"
         width="93.905098"
         id="rect865-5"
         style="fill:#f2f3f4;fill-opacity:1;stroke:none;stroke-width:0.112093;stroke-linecap:round;stroke-linejoin:round" />
    </clipPath>
    <clipPath
       clipPathUnits="userSpaceOnUse"
       id="clipPath34-6">
      <path
         d="M 0,1200 H 1920 V 0 H 0 Z"
         id="path36-2"
         inkscape:connector-curvature="0" />
    </clipPath>
    <clipPath
       clipPathUnits="userSpaceOnUse"
       id="clipPath72-9">
      <path
         d="M 0,1200 H 1920 V 0 H 0 Z"
         id="path74-1"
         inkscape:connector-curvature="0" />
    </clipPath>
  </defs>
  <sodipodi:namedview
     inkscape:window-maximized="1"
     inkscape:window-y="713"
     inkscape:window-x="1920"
     inkscape:window-height="1026"
     inkscape:window-width="1920"
     units="px"
     showgrid="false"
     inkscape:document-rotation="0"
     inkscape:current-layer="layer1"
     inkscape:document-units="mm"
     inkscape:cy="-16.93742"
     inkscape:cx="-59.348919"
     inkscape:zoom="0.98994949"
     inkscape:pageshadow="2"
     inkscape:pageopacity="0.0"
     borderopacity="1.0"
     bordercolor="#666666"
     pagecolor="#ffffff"
     id="base" />
  <metadata
     id="metadata5">
    <rdf:RDF>
      <cc:Work
         rdf:about="">
        <dc:format>image/svg+xml</dc:format>
        <dc:type
           rdf:resource="http://purl.org/dc/dcmitype/StillImage" />
        <dc:title></dc:title>
      </cc:Work>
    </rdf:RDF>
  </metadata>
  <g
     id="layer1"
     inkscape:groupmode="layer"
     inkscape:label="Layer 1">
    <g
       id="g1905">
      <path
         style="fill-rule:evenodd;stroke-width:0.264583"
         d="M 25.585737,22.092664 H 2.7246793 A 1.0072687,1.0072687 0 0 1 1.7197918,21.083279 V 2.4645496 c 0,-0.5574771 0.4497917,-1.0093854 1.0048875,-1.0093854 H 25.585737 a 1.0070042,1.0070042 0 0 1 1.004888,1.0093854 V 21.083279 c 0,0.557477 -0.449792,1.009385 -1.004888,1.009385"
         fill="#fefefe"
         id="path1657" />
      <path
         style="fill:none;fill-rule:evenodd;stroke-width:0.264583"
         d="M 25.585737,22.092664 H 2.7246793 A 1.0072687,1.0072687 0 0 1 1.7197918,21.083279 V 2.4645496 c 0,-0.5574771 0.4497917,-1.0093854 1.0048875,-1.0093854 H 25.585737 a 1.0070042,1.0070042 0 0 1 1.004888,1.0093854 V 21.083279 c 0,0.557477 -0.449792,1.009385 -1.004888,1.009385 z"
         stroke="#3098dc"
         id="path1659" />
      <path
         style="fill-rule:evenodd;stroke-width:0.264583"
         d="M 27.842104,22.092664 H 0.46831267 c -0.1857375,0 -0.33602083,-0.145521 -0.33602083,-0.325173 v -1.201473 c 0,-0.180181 0.15028333,-0.325437 0.33602083,-0.325437 H 27.842104 c 0.185208,0 0.336021,0.14552 0.336021,0.325173 v 1.201737 c 0,0.179917 -0.150813,0.325173 -0.336021,0.325173"
         fill="#d9f0ff"
         id="path1661" />
      <path
         style="fill:none;fill-rule:evenodd;stroke-width:0.264583"
         d="M 27.842104,22.092664 H 0.46831267 c -0.1857375,0 -0.33602083,-0.145521 -0.33602083,-0.325173 v -1.201473 c 0,-0.180181 0.15028333,-0.325437 0.33602083,-0.325437 H 27.842104 c 0.185208,0 0.336021,0.14552 0.336021,0.325173 v 1.201737 c 0,0.179917 -0.150813,0.325173 -0.336021,0.325173 z"
         stroke="#3098dc"
         id="path1663" />
      <path
         style="fill-rule:evenodd;stroke-width:0.264583"
         d="M 2.7781251,18.917664 H 25.532292 V 2.7780808 H 2.7781251 Z"
         fill="#fefefe"
         id="path1665" />
      <g
         style="fill:none;fill-rule:evenodd"
         stroke="#3098dc"
         transform="matrix(0.26458333,0,0,0.26458333,0.13229184,0.13224753)"
         id="g1681">
        <path
           d="M 10,71 H 96 V 10 H 10 Z"
           id="path1667" />
        <rect
           fill="#ffffff"
           height="53"
           rx="2"
           width="77"
           x="14.5"
           y="14.5"
           id="rect1669" />
        <path
           d="m 14.5,21.5 h 77 V 16 A 1.5,1.5 0 0 0 90,14.5 H 16 A 1.5,1.5 0 0 0 14.5,16 Z"
           fill="#ffffff"
           id="path1671" />
        <g
           fill="#d9f0ff"
           id="g1679">
          <circle
             cx="18"
             cy="18"
             r="1"
             id="circle1673" />
          <circle
             cx="22.768999"
             cy="18"
             r="1"
             id="circle1675" />
          <circle
             cx="27.538"
             cy="18"
             r="1"
             id="circle1677" />
        </g>
      </g>
      <text
         style="fill-rule:evenodd;stroke-width:0.264583"
         fill="#3098dc"
         font-family="RobotoMono-Bold, 'Roboto Mono'"
         font-size="2.64583px"
         font-weight="bold"
         id="text1693"
         x="0.13229184"
         y="0.13224754"><tspan
           x="6.6132607"
           y="11.509331"
           id="tspan1689"
           style="stroke-width:0.264583">LOGIN WITH</tspan><tspan
           x="8.201025"
           y="14.948914"
           id="tspan1691"
           style="stroke-width:0.264583">SPARROW</tspan></text>
      <path
         id="path891"
         d="m 20.584974,9.2271018 2.08931,-0.5261539 0.58816,-2.1851492 1.34881,-1.0232437 0.35815,0.1332007 1.06606,-0.8847387 -0.43805,0.672008 0.20644,0.179815 -0.11638,-0.220311 0.4644,-0.605475 0.74182,0.449922 -0.11973,0.231346 0.21064,-0.257184 -0.9344,-0.580608 -0.8539,0.662811 -0.0813,-0.277281 1.57313,-1.937225 0.1442,-0.796221 0.48144,-0.429064 0.69009,-0.04343 -0.47673,-0.494731 -0.14392,-0.31858005 -0.62121,-0.33939701 -0.67359,0.0094 -1.22285,0.66344706 -0.58937,-0.68970306 -1.43765,-0.47463396 -3.73241,-0.0073 0.45385,0.66466903 -0.44687,0.03737 0.70808,0.45709499 -0.26043,-0.0042 2.16987,2.242338 -0.1923,0.669492 0.6193,0.0063 0.0323,0.421255 1.24473,-0.903082 -0.54831,1.544972 -0.74747,1.3978327 -1.58783,1.7432442 0.99839,-0.1778932 z"
         style="fill:#ffffff;stroke:#3098dc;stroke-width:0.276219;stroke-linecap:butt;stroke-linejoin:miter;stroke-miterlimit:4;stroke-dasharray:none;stroke-opacity:1" />
    </g>
  </g>
</svg>
